# xmcd
#
# Track frame offsets: 
#        150
#        17116
#        33301
#        44962
#        64713
#        85224
#        106047
#        124638
#        141750
#        158709
#        180368
#        194471
#        210658
#
# Disc length: 3072 seconds
#
# Revision: 0
# Processed by: cddbd v1.5.2PL0 Copyright (c) Steve Scherf et al.
# Submitted via: ExactAudioCopy v0.95b4
#
DISCID=ad0bfe0d
DTITLE=Jeff Klein - You'll Never Get To Heaven If You Break My Heart
DYEAR=2000
DGENRE=Country
TTITLE0=Fast As You Can
TTITLE1=Blown Away
TTITLE2=Break In Two
TTITLE3=Lower Down
TTITLE4=Heaven Of Your Arms
TTITLE5=Fallen Down
TTITLE6=No Pulse
TTITLE7=Patch
TTITLE8=Song From The Tin Man
TTITLE9=Black And Blue
TTITLE10=Half The Time
TTITLE11=Ballad Of Big Red
TTITLE12=Without You
EXTD=
EXTT0=
EXTT1=
EXTT2=
EXTT3=
EXTT4=
EXTT5=
EXTT6=
EXTT7=
EXTT8=
EXTT9=
EXTT10=
EXTT11=
EXTT12=
PLAYORDER=
